<?xml version="1.0" encoding="utf-8"?>
<!-- Generator: Adobe Illustrator 23.0.5, SVG Export Plug-In . SVG Version: 6.00 Build 0)  -->
<svg version="1.1" id="Capa_3" xmlns="http://www.w3.org/2000/svg" xmlns:xlink="http://www.w3.org/1999/xlink" x="0px" y="0px"
	 viewBox="0 0 186 46" style="enable-background:new 0 0 186 46;" xml:space="preserve">
<style type="text/css">
	.st0{fill:#FFFFFF;}
	.st1{fill:#FFFFFF;stroke:#FFFFFF;stroke-width:2;stroke-miterlimit:10;}
</style>
<g>
	<path class="st0" d="M62.7,36.5c0.3-0.1,0.8-0.1,1.2-0.1c0.7,0,1.1,0.1,1.4,0.4c0.2,0.2,0.4,0.5,0.4,0.9c0,0.6-0.4,1-0.9,1.2v0
		c0.4,0.1,0.6,0.4,0.7,0.9c0.2,0.6,0.3,1.1,0.4,1.2h-0.6c-0.1-0.1-0.2-0.5-0.3-1.1c-0.1-0.6-0.4-0.9-1-0.9h-0.6v2h-0.6V36.5z
		 M63.3,38.6h0.6c0.7,0,1.1-0.3,1.1-0.9c0-0.6-0.4-0.8-1.1-0.8c-0.3,0-0.5,0-0.6,0V38.6z"/>
	<path class="st0" d="M66.8,39.5c0,0.8,0.5,1.1,1.2,1.1c0.4,0,0.7-0.1,0.9-0.2l0.1,0.4c-0.2,0.1-0.6,0.2-1.1,0.2
		c-1.1,0-1.7-0.7-1.7-1.7s0.6-1.8,1.6-1.8c1.1,0,1.4,0.9,1.4,1.5c0,0.1,0,0.2,0,0.3H66.8z M68.7,39.1c0-0.4-0.2-1-0.9-1
		c-0.6,0-0.9,0.5-1,1H68.7z"/>
	<path class="st0" d="M70,38.8c0-0.4,0-0.8,0-1.1h0.6l0,0.6h0c0.2-0.4,0.7-0.6,1.2-0.6c0.8,0,1.5,0.7,1.5,1.7c0,1.2-0.8,1.8-1.6,1.8
		c-0.5,0-0.8-0.2-1.1-0.5h0v1.8H70V38.8z M70.6,39.7c0,0.1,0,0.2,0,0.2c0.1,0.4,0.5,0.7,0.9,0.7c0.7,0,1-0.5,1-1.3
		c0-0.6-0.4-1.2-1-1.2c-0.4,0-0.8,0.3-0.9,0.7c0,0.1,0,0.2,0,0.2V39.7z"/>
	<path class="st0" d="M76.5,40.2c0,0.3,0,0.6,0,0.8h-0.6l0-0.4h0c-0.2,0.3-0.6,0.5-1,0.5c-0.7,0-1-0.5-1-0.9c0-0.8,0.7-1.2,2.1-1.2
		v-0.1c0-0.3-0.1-0.8-0.8-0.7c-0.3,0-0.7,0.1-0.9,0.2L74,38c0.3-0.2,0.7-0.3,1.1-0.3c1,0,1.3,0.7,1.3,1.3V40.2z M75.8,39.4
		c-0.7,0-1.4,0.1-1.4,0.7c0,0.4,0.3,0.6,0.6,0.6c0.5,0,0.7-0.3,0.8-0.5c0-0.1,0-0.1,0-0.2V39.4z"/>
	<path class="st0" d="M77.5,38.8c0-0.4,0-0.7,0-1H78l0,0.6h0c0.2-0.4,0.5-0.7,1-0.7c0.1,0,0.1,0,0.2,0v0.6c-0.1,0-0.1,0-0.2,0
		c-0.4,0-0.7,0.3-0.8,0.8c0,0.1,0,0.2,0,0.3V41h-0.6V38.8z"/>
	<path class="st0" d="M82.1,40.2c0,0.3,0,0.6,0,0.8h-0.6l0-0.4h0c-0.2,0.3-0.6,0.5-1,0.5c-0.7,0-1-0.5-1-0.9c0-0.8,0.7-1.2,2.1-1.2
		v-0.1c0-0.3-0.1-0.8-0.8-0.7c-0.3,0-0.7,0.1-0.9,0.2L79.7,38c0.3-0.2,0.7-0.3,1.1-0.3c1,0,1.3,0.7,1.3,1.3V40.2z M81.5,39.4
		c-0.7,0-1.4,0.1-1.4,0.7c0,0.4,0.3,0.6,0.6,0.6c0.5,0,0.7-0.3,0.8-0.5c0-0.1,0-0.1,0-0.2V39.4z"/>
	<path class="st0" d="M85.6,40.9c-0.2,0.1-0.5,0.2-1,0.2c-1,0-1.7-0.7-1.7-1.7c0-1,0.7-1.7,1.8-1.7c0.4,0,0.7,0.1,0.9,0.2l-0.1,0.5
		c-0.1-0.1-0.4-0.2-0.7-0.2c-0.8,0-1.2,0.6-1.2,1.2c0,0.8,0.5,1.2,1.2,1.2c0.4,0,0.6-0.1,0.8-0.2L85.6,40.9z"/>
	<path class="st0" d="M87,36.8c0,0.2-0.1,0.4-0.4,0.4c-0.2,0-0.4-0.2-0.4-0.4s0.2-0.4,0.4-0.4C86.8,36.5,87,36.6,87,36.8z M86.3,41
		v-3.3h0.6V41H86.3z"/>
	<path class="st0" d="M91.1,39.4c0,1.2-0.9,1.7-1.7,1.7c-0.9,0-1.6-0.6-1.6-1.7c0-1.1,0.8-1.7,1.7-1.7
		C90.4,37.7,91.1,38.4,91.1,39.4z M88.3,39.4c0,0.7,0.4,1.3,1,1.3c0.6,0,1-0.5,1-1.3c0-0.6-0.3-1.2-1-1.2
		C88.7,38.1,88.3,38.8,88.3,39.4z M90.3,36.3l-0.9,1H89l0.6-1H90.3z"/>
	<path class="st0" d="M91.8,38.6c0-0.3,0-0.6,0-0.9h0.6l0,0.5h0c0.2-0.3,0.6-0.6,1.1-0.6c0.5,0,1.2,0.3,1.2,1.4V41h-0.6v-1.9
		c0-0.5-0.2-1-0.8-1c-0.4,0-0.7,0.3-0.8,0.6c0,0.1,0,0.2,0,0.3v2h-0.6V38.6z"/>
	<path class="st0" d="M95.4,41.9c0.2-0.4,0.3-1.1,0.4-1.6l0.7-0.1c-0.2,0.6-0.5,1.3-0.7,1.6L95.4,41.9z"/>
	<path class="st0" d="M99,37.8l0.7,1.8c0.1,0.3,0.2,0.6,0.3,0.8h0c0.1-0.3,0.2-0.5,0.3-0.8l0.7-1.8h0.6l-1.3,3.3h-0.6l-1.3-3.3H99z"
		/>
	<path class="st0" d="M102.4,39.5c0,0.8,0.5,1.1,1.2,1.1c0.4,0,0.7-0.1,0.9-0.2l0.1,0.4c-0.2,0.1-0.6,0.2-1.1,0.2
		c-1.1,0-1.7-0.7-1.7-1.7s0.6-1.8,1.6-1.8c1.1,0,1.4,0.9,1.4,1.5c0,0.1,0,0.2,0,0.3H102.4z M104.2,39.1c0-0.4-0.2-1-0.9-1
		c-0.6,0-0.9,0.5-1,1H104.2z"/>
	<path class="st0" d="M105.6,38.6c0-0.3,0-0.6,0-0.9h0.6l0,0.5h0c0.2-0.3,0.6-0.6,1.1-0.6c0.5,0,1.2,0.3,1.2,1.4V41h-0.6v-1.9
		c0-0.5-0.2-1-0.8-1c-0.4,0-0.7,0.3-0.8,0.6c0,0.1,0,0.2,0,0.3v2h-0.6V38.6z"/>
	<path class="st0" d="M110.2,37v0.8h0.9v0.5h-0.9V40c0,0.4,0.1,0.6,0.5,0.6c0.2,0,0.3,0,0.4,0l0,0.5c-0.1,0-0.3,0.1-0.6,0.1
		c-0.3,0-0.5-0.1-0.7-0.3c-0.2-0.2-0.2-0.5-0.2-0.9v-1.8h-0.5v-0.5h0.5v-0.6L110.2,37z"/>
	<path class="st0" d="M114.2,40.2c0,0.3,0,0.6,0,0.8h-0.6l0-0.4h0c-0.2,0.3-0.6,0.5-1,0.5c-0.7,0-1-0.5-1-0.9c0-0.8,0.7-1.2,2.1-1.2
		v-0.1c0-0.3-0.1-0.8-0.8-0.7c-0.3,0-0.7,0.1-0.9,0.2l-0.1-0.4c0.3-0.2,0.7-0.3,1.1-0.3c1,0,1.3,0.7,1.3,1.3V40.2z M113.6,39.4
		c-0.7,0-1.4,0.1-1.4,0.7c0,0.4,0.3,0.6,0.6,0.6c0.5,0,0.7-0.3,0.8-0.5c0-0.1,0-0.1,0-0.2V39.4z"/>
	<path class="st0" d="M117,37.8l0.7,1.9c0.1,0.2,0.2,0.5,0.2,0.7h0c0.1-0.2,0.1-0.4,0.2-0.7l0.7-1.9h0.7l-0.9,2.3
		c-0.4,1.1-0.7,1.7-1.2,2c-0.3,0.2-0.6,0.4-0.8,0.4l-0.2-0.5c0.2,0,0.4-0.1,0.5-0.3c0.2-0.1,0.4-0.4,0.5-0.7c0-0.1,0-0.1,0-0.1
		c0,0,0-0.1,0-0.2l-1.3-3H117z"/>
	<path class="st0" d="M121.5,40.4c0.2,0.1,0.5,0.2,0.8,0.2c0.4,0,0.7-0.2,0.7-0.5c0-0.3-0.2-0.4-0.6-0.6c-0.6-0.2-0.9-0.5-0.9-0.9
		c0-0.5,0.5-1,1.2-1c0.3,0,0.6,0.1,0.8,0.2l-0.1,0.4c-0.1-0.1-0.4-0.2-0.7-0.2c-0.4,0-0.6,0.2-0.6,0.4c0,0.3,0.2,0.4,0.6,0.6
		c0.6,0.2,0.9,0.5,0.9,1c0,0.6-0.5,1-1.3,1c-0.4,0-0.7-0.1-1-0.2L121.5,40.4z"/>
	<path class="st0" d="M124.7,39.5c0,0.8,0.5,1.1,1.2,1.1c0.4,0,0.7-0.1,0.9-0.2l0.1,0.4c-0.2,0.1-0.6,0.2-1.1,0.2
		c-1.1,0-1.7-0.7-1.7-1.7s0.6-1.8,1.6-1.8c1.1,0,1.4,0.9,1.4,1.5c0,0.1,0,0.2,0,0.3H124.7z M126.5,39.1c0-0.4-0.2-1-0.9-1
		c-0.6,0-0.9,0.5-1,1H126.5z"/>
	<path class="st0" d="M127.9,38.8c0-0.4,0-0.7,0-1h0.5l0,0.6h0c0.2-0.4,0.5-0.7,1-0.7c0.1,0,0.1,0,0.2,0v0.6c-0.1,0-0.1,0-0.2,0
		c-0.4,0-0.7,0.3-0.8,0.8c0,0.1,0,0.2,0,0.3V41h-0.6V38.8z"/>
	<path class="st0" d="M130.6,37.8l0.7,1.8c0.1,0.3,0.2,0.6,0.3,0.8h0c0.1-0.3,0.2-0.5,0.3-0.8l0.7-1.8h0.6l-1.3,3.3h-0.6l-1.3-3.3
		H130.6z"/>
	<path class="st0" d="M134.5,36.8c0,0.2-0.1,0.4-0.4,0.4c-0.2,0-0.4-0.2-0.4-0.4s0.2-0.4,0.4-0.4C134.3,36.5,134.5,36.6,134.5,36.8z
		 M133.8,41v-3.3h0.6V41H133.8z"/>
	<path class="st0" d="M137.9,40.9c-0.2,0.1-0.5,0.2-1,0.2c-1,0-1.7-0.7-1.7-1.7c0-1,0.7-1.7,1.8-1.7c0.4,0,0.7,0.1,0.9,0.2l-0.1,0.5
		c-0.1-0.1-0.4-0.2-0.7-0.2c-0.8,0-1.2,0.6-1.2,1.2c0,0.8,0.5,1.2,1.2,1.2c0.4,0,0.6-0.1,0.8-0.2L137.9,40.9z"/>
	<path class="st0" d="M139.3,36.8c0,0.2-0.1,0.4-0.4,0.4c-0.2,0-0.4-0.2-0.4-0.4s0.2-0.4,0.4-0.4C139.1,36.5,139.3,36.6,139.3,36.8z
		 M138.6,41v-3.3h0.6V41H138.6z"/>
	<path class="st0" d="M143.4,39.4c0,1.2-0.9,1.7-1.7,1.7c-0.9,0-1.6-0.6-1.6-1.7c0-1.1,0.8-1.7,1.7-1.7
		C142.7,37.7,143.4,38.4,143.4,39.4z M140.6,39.4c0,0.7,0.4,1.3,1,1.3c0.6,0,1-0.5,1-1.3c0-0.6-0.3-1.2-1-1.2
		C141,38.1,140.6,38.8,140.6,39.4z"/>
	<path class="st0" d="M146.4,37v0.8h0.9v0.5h-0.9V40c0,0.4,0.1,0.6,0.5,0.6c0.2,0,0.3,0,0.4,0l0,0.5c-0.1,0-0.3,0.1-0.6,0.1
		c-0.3,0-0.5-0.1-0.7-0.3c-0.2-0.2-0.2-0.5-0.2-0.9v-1.8h-0.5v-0.5h0.5v-0.6L146.4,37z"/>
	<path class="st0" d="M148.3,39.5c0,0.8,0.5,1.1,1.2,1.1c0.4,0,0.7-0.1,0.9-0.2l0.1,0.4c-0.2,0.1-0.6,0.2-1.1,0.2
		c-1.1,0-1.7-0.7-1.7-1.7s0.6-1.8,1.6-1.8c1.1,0,1.4,0.9,1.4,1.5c0,0.1,0,0.2,0,0.3H148.3z M150.1,39.1c0-0.4-0.2-1-0.9-1
		c-0.6,0-0.9,0.5-1,1H150.1z M150.2,36.3l-0.9,1h-0.4l0.6-1H150.2z"/>
	<path class="st0" d="M153.9,40.9c-0.2,0.1-0.5,0.2-1,0.2c-1,0-1.7-0.7-1.7-1.7c0-1,0.7-1.7,1.8-1.7c0.4,0,0.7,0.1,0.9,0.2l-0.1,0.5
		c-0.1-0.1-0.4-0.2-0.7-0.2c-0.8,0-1.2,0.6-1.2,1.2c0,0.8,0.5,1.2,1.2,1.2c0.4,0,0.6-0.1,0.8-0.2L153.9,40.9z"/>
	<path class="st0" d="M154.6,38.6c0-0.3,0-0.6,0-0.9h0.6l0,0.5h0c0.2-0.3,0.6-0.6,1.1-0.6c0.5,0,1.2,0.3,1.2,1.4V41h-0.6v-1.9
		c0-0.5-0.2-1-0.8-1c-0.4,0-0.7,0.3-0.8,0.6c0,0.1,0,0.2,0,0.3v2h-0.6V38.6z"/>
	<path class="st0" d="M159.3,36.8c0,0.2-0.1,0.4-0.4,0.4c-0.2,0-0.4-0.2-0.4-0.4s0.2-0.4,0.4-0.4C159.1,36.5,159.3,36.6,159.3,36.8z
		 M158.6,41v-3.3h0.6V41H158.6z"/>
	<path class="st0" d="M162.7,40.9c-0.2,0.1-0.5,0.2-1,0.2c-1,0-1.7-0.7-1.7-1.7c0-1,0.7-1.7,1.8-1.7c0.4,0,0.7,0.1,0.9,0.2l-0.1,0.5
		c-0.1-0.1-0.4-0.2-0.7-0.2c-0.8,0-1.2,0.6-1.2,1.2c0,0.8,0.5,1.2,1.2,1.2c0.4,0,0.6-0.1,0.8-0.2L162.7,40.9z"/>
	<path class="st0" d="M166.4,39.4c0,1.2-0.9,1.7-1.7,1.7c-0.9,0-1.6-0.6-1.6-1.7c0-1.1,0.8-1.7,1.7-1.7
		C165.8,37.7,166.4,38.4,166.4,39.4z M163.7,39.4c0,0.7,0.4,1.3,1,1.3c0.6,0,1-0.5,1-1.3c0-0.6-0.3-1.2-1-1.2
		C164,38.1,163.7,38.8,163.7,39.4z"/>
	<path class="st0" d="M166.9,40.7c0-0.2,0.2-0.4,0.4-0.4s0.4,0.2,0.4,0.4c0,0.2-0.2,0.4-0.4,0.4C167.1,41.1,166.9,40.9,166.9,40.7z"
		/>
</g>
<g>
	<path class="st1" d="M76.1,30.8c-1,0.5-3,1-5.5,1c-5.9,0-10.3-3.7-10.3-10.7c0-6.6,4.4-11.1,10.9-11.1c2.6,0,4.2,0.6,5,0.9
		l-0.7,2.2c-1-0.5-2.4-0.9-4.2-0.9c-4.9,0-8.1,3.2-8.1,8.7c0,5.2,2.9,8.5,8,8.5c1.7,0,3.3-0.3,4.4-0.9L76.1,30.8z"/>
	<path class="st1" d="M82.2,10.4v8.8h10.1v-8.8H95v21.1h-2.7v-9.9H82.2v9.9h-2.7V10.4H82.2z"/>
	<path class="st1" d="M102.3,10.4v21.1h-2.7V10.4H102.3z"/>
	<path class="st1" d="M107,10.4h2.7v18.8h8.9v2.3H107V10.4z"/>
	<path class="st1" d="M121.6,10.4h2.7v18.8h8.9v2.3h-11.6V10.4z"/>
	<path class="st1" d="M147,21.6H139v7.6h9v2.3h-11.8V10.4h11.3v2.3H139v6.7h8.1V21.6z"/>
	<path class="st1" d="M151.5,10.7c1.4-0.3,3.3-0.4,5.2-0.4c2.9,0,4.8,0.6,6,1.7c1,0.9,1.6,2.4,1.6,4c0,2.7-1.7,4.6-3.9,5.3v0.1
		c1.6,0.6,2.5,2.1,3,4.2c0.7,2.9,1.2,5,1.6,5.8h-2.8c-0.3-0.6-0.8-2.4-1.4-5c-0.6-2.9-1.8-4-4.2-4.1h-2.5v9.1h-2.7V10.7z
		 M154.2,20.3h2.8c2.9,0,4.7-1.6,4.7-4c0-2.7-2-3.9-4.8-3.9c-1.3,0-2.2,0.1-2.7,0.2V20.3z"/>
</g>
<g>
	<path class="st0" d="M49.4,19.7h-2.6c0-0.2-0.1-0.3-0.1-0.4c0-0.1-0.1-0.3-0.1-0.4c-0.1-0.1-0.1-0.3-0.2-0.4
		c-0.1-0.1-0.1-0.3-0.2-0.4c-0.1-0.1-0.2-0.3-0.3-0.4c-0.1-0.1-0.2-0.2-0.3-0.4c-0.1-0.1-0.2-0.2-0.3-0.3c-0.1-0.1-0.2-0.2-0.4-0.3
		c-0.1-0.1-0.3-0.2-0.4-0.3c-0.1-0.1-0.3-0.2-0.4-0.3c-0.2-0.1-0.3-0.1-0.5-0.2c-0.2-0.1-0.3-0.1-0.5-0.2c-0.2-0.1-0.3-0.1-0.5-0.1
		c-0.2,0-0.3-0.1-0.5-0.1c-0.2,0-0.3,0-0.5-0.1c-0.2,0-0.3,0-0.5,0h-0.8V9.5c0-0.1,0-0.2,0-0.4c0-0.1,0-0.2-0.1-0.4
		C40,8.6,40,8.5,40,8.4c0-0.1-0.1-0.2-0.1-0.3c-0.1-0.1-0.1-0.2-0.2-0.3c-0.1-0.1-0.1-0.2-0.2-0.3c-0.1-0.1-0.2-0.2-0.2-0.3
		C39.1,7,39,7,38.9,6.9c-0.1-0.1-0.2-0.2-0.3-0.2c-0.1-0.1-0.2-0.1-0.3-0.2c-0.1-0.1-0.2-0.1-0.4-0.2c-0.1-0.1-0.2-0.1-0.4-0.2
		C37.4,6,37.3,6,37.2,6c-0.1,0-0.3-0.1-0.4-0.1c-0.1,0-0.3,0-0.4-0.1c-0.1,0-0.3,0-0.4,0h-9.3c0,0,0-0.1,0-0.1c0,0,0-0.1,0-0.1
		s0-0.1-0.1-0.1c0,0-0.1-0.1-0.1-0.1c0,0-0.1-0.1-0.1-0.1s-0.1,0-0.1-0.1c-0.1,0-0.1,0-0.2,0c-0.1,0-0.1,0-0.2,0h-7.6
		c-0.1,0-0.2,0-0.3,0c-0.1,0-0.2,0-0.3,0c-0.1,0-0.2,0-0.3,0c-0.1,0-0.2,0-0.3,0c-0.1,0-0.2,0-0.3,0.1c-0.1,0-0.2,0-0.3,0.1
		c-0.1,0-0.2,0.1-0.3,0.1c-0.1,0-0.2,0.1-0.3,0.1s-0.2,0.1-0.3,0.1c-0.1,0-0.2,0.1-0.3,0.1c-0.1,0-0.2,0.1-0.3,0.1
		c-0.1,0-0.2,0.1-0.3,0.2c-0.1,0.1-0.2,0.1-0.3,0.2c-0.1,0.1-0.2,0.1-0.3,0.2c-0.1,0.1-0.2,0.1-0.3,0.2c-0.1,0.1-0.2,0.1-0.2,0.2
		c-0.1,0.1-0.2,0.1-0.2,0.2c-0.1,0.1-0.1,0.1-0.2,0.2c-0.1,0.1-0.1,0.1-0.2,0.2c-0.1,0.1-0.1,0.2-0.2,0.2c-0.1,0.1-0.1,0.2-0.2,0.2
		c-0.1,0.1-0.1,0.2-0.2,0.3c-0.1,0.1-0.1,0.2-0.1,0.3c0,0.1-0.1,0.2-0.1,0.3c0,0.1-0.1,0.2-0.1,0.3c0,0.1-0.1,0.2-0.1,0.3
		c0,0.1-0.1,0.2-0.1,0.3c0,0.1-0.1,0.2-0.1,0.3c0,0.1,0,0.2-0.1,0.3c0,0.1,0,0.2,0,0.3c0,0.1,0,0.2,0,0.3c0,0.1,0,0.2,0,0.3v1.5
		h-0.8c-0.1,0-0.1,0-0.2,0c-0.1,0-0.1,0-0.2,0c-0.1,0-0.1,0-0.1,0.1c0,0-0.1,0.1-0.1,0.1S10,12.7,10,12.7c0,0-0.1,0.1-0.1,0.1
		s0,0.1,0,0.1c0,0,0,0.1,0,0.1v2.2H9c-0.2,0-0.4,0-0.5,0c-0.2,0-0.3,0-0.5,0.1c-0.2,0-0.3,0.1-0.5,0.1c-0.2,0-0.3,0.1-0.5,0.1
		c-0.2,0.1-0.3,0.1-0.5,0.2C6.3,15.9,6.2,16,6,16c-0.2,0.1-0.3,0.2-0.4,0.3c-0.1,0.1-0.3,0.2-0.4,0.3c-0.1,0.1-0.3,0.2-0.4,0.3
		c-0.1,0.1-0.2,0.2-0.3,0.3c-0.1,0.1-0.2,0.2-0.3,0.4C4,17.7,3.9,17.9,3.8,18c-0.1,0.1-0.2,0.3-0.2,0.4c-0.1,0.1-0.1,0.3-0.2,0.4
		c-0.1,0.1-0.1,0.3-0.1,0.4c0,0.1-0.1,0.3-0.1,0.4H0.6c-0.1,0-0.1,0-0.2,0s-0.1,0-0.2,0c-0.1,0-0.1,0-0.1,0.1c0,0-0.1,0.1-0.1,0.1
		S-0.1,20-0.1,20c0,0-0.1,0.1-0.1,0.1c0,0,0,0.1,0,0.1c0,0,0,0.1,0,0.1v2.9c0,0,0,0.1,0,0.1c0,0,0,0.1,0,0.1c0,0,0,0.1,0.1,0.1
		c0,0,0.1,0.1,0.1,0.1c0,0,0.1,0.1,0.1,0.1c0,0,0.1,0,0.1,0.1c0.1,0,0.1,0,0.2,0c0.1,0,0.1,0,0.2,0h2.6c0,0.1,0.1,0.3,0.1,0.4
		c0,0.1,0.1,0.3,0.1,0.4c0,0.1,0.1,0.3,0.2,0.4s0.1,0.3,0.2,0.4C3.8,25.8,3.9,25.9,4,26c0.1,0.1,0.2,0.2,0.3,0.3
		c0.1,0.1,0.2,0.2,0.3,0.3c0.1,0.1,0.2,0.2,0.3,0.3c0.1,0.1,0.2,0.2,0.3,0.3c0.1,0.1,0.2,0.2,0.4,0.3c0.1,0.1,0.3,0.2,0.4,0.2
		c0.1,0.1,0.3,0.1,0.4,0.2c0.1,0.1,0.3,0.1,0.4,0.2c0.1,0.1,0.3,0.1,0.4,0.1c0.2,0,0.3,0.1,0.5,0.1c0.2,0,0.3,0.1,0.5,0.1V30
		c-0.1,0-0.3,0-0.4,0S7.5,30,7.3,30c-0.1,0-0.3,0.1-0.4,0.1c-0.1,0-0.3,0.1-0.4,0.1c-0.1,0-0.3,0.1-0.4,0.2
		c-0.1,0.1-0.2,0.1-0.4,0.2c-0.1,0.1-0.2,0.1-0.3,0.2c-0.1,0.1-0.2,0.2-0.3,0.2S5,31.2,4.9,31.3c-0.1,0.1-0.2,0.2-0.2,0.3
		c-0.1,0.1-0.1,0.2-0.2,0.3c-0.1,0.1-0.1,0.2-0.2,0.3c-0.1,0.1-0.1,0.2-0.1,0.3c0,0.1-0.1,0.2-0.1,0.3C4,33,4,33.2,4,33.3
		c0,0.1,0,0.2,0,0.4v1.5c0,0.1,0,0.2,0,0.4c0,0.1,0,0.2,0.1,0.4c0,0.1,0.1,0.2,0.1,0.3c0,0.1,0.1,0.2,0.1,0.3
		c0.1,0.1,0.1,0.2,0.2,0.3c0.1,0.1,0.1,0.2,0.2,0.3c0.1,0.1,0.2,0.2,0.2,0.3c0.1,0.1,0.2,0.2,0.3,0.3s0.2,0.2,0.3,0.2
		c0.1,0.1,0.2,0.1,0.3,0.2c0.1,0.1,0.2,0.1,0.4,0.2c0.1,0.1,0.2,0.1,0.4,0.2c0.1,0,0.3,0.1,0.4,0.1c0.1,0,0.3,0.1,0.4,0.1
		c0.1,0,0.3,0,0.4,0.1s0.3,0,0.4,0v1.5H6.5v1.5h5.1v-1.5H9.8v-1.5h30.3v1.5h-1.7v1.5h5.1v-1.5h-1.7v-1.5c0.2,0,0.4,0,0.6,0
		c0.2,0,0.4-0.1,0.6-0.1c0.2-0.1,0.4-0.1,0.6-0.2c0.2-0.1,0.4-0.2,0.5-0.3c0.2-0.1,0.3-0.2,0.5-0.3c0.2-0.1,0.3-0.2,0.4-0.4
		c0.1-0.1,0.3-0.3,0.4-0.4s0.2-0.3,0.3-0.5h2v-1.5h-1.7v-1.5h1.7v-1.5h-2c-0.1-0.2-0.2-0.3-0.3-0.5c-0.1-0.2-0.2-0.3-0.4-0.4
		c-0.1-0.1-0.3-0.3-0.4-0.4c-0.2-0.1-0.3-0.2-0.5-0.3c-0.2-0.1-0.3-0.2-0.5-0.3c-0.2-0.1-0.4-0.1-0.6-0.2c-0.2-0.1-0.4-0.1-0.6-0.1
		c-0.2,0-0.4,0-0.6,0v-1.5c0.2,0,0.3,0,0.5-0.1c0.2,0,0.3-0.1,0.5-0.1c0.2,0,0.3-0.1,0.4-0.1c0.1-0.1,0.3-0.1,0.4-0.2
		c0.1-0.1,0.3-0.1,0.4-0.2c0.1-0.1,0.3-0.1,0.4-0.2c0.1-0.1,0.3-0.2,0.4-0.3c0.1-0.1,0.2-0.2,0.3-0.3c0.1-0.1,0.2-0.2,0.3-0.3
		c0.1-0.1,0.2-0.2,0.3-0.3c0.1-0.1,0.2-0.2,0.3-0.3c0.1-0.1,0.2-0.2,0.2-0.4c0.1-0.1,0.1-0.2,0.2-0.4c0.1-0.1,0.1-0.3,0.2-0.4
		c0-0.1,0.1-0.3,0.1-0.4c0-0.1,0.1-0.3,0.1-0.4h2.6c0.1,0,0.1,0,0.2,0c0.1,0,0.1,0,0.2,0c0.1,0,0.1,0,0.1-0.1c0,0,0.1-0.1,0.1-0.1
		c0,0,0.1-0.1,0.1-0.1c0,0,0.1-0.1,0.1-0.1c0,0,0-0.1,0-0.1c0,0,0-0.1,0-0.1v-2.9c0,0,0-0.1,0-0.1c0,0,0-0.1,0-0.1
		c0,0,0-0.1-0.1-0.1c0,0-0.1-0.1-0.1-0.1c0,0-0.1-0.1-0.1-0.1c0,0-0.1,0-0.1-0.1c-0.1,0-0.1,0-0.2,0C49.5,19.7,49.5,19.7,49.4,19.7z
		 M37.6,19.7H25.8c-0.1,0-0.1,0-0.2,0s-0.1,0-0.2,0c-0.1,0-0.1,0-0.1,0.1c0,0-0.1,0.1-0.1,0.1S25.2,20,25.1,20c0,0-0.1,0.1-0.1,0.1
		c0,0,0,0.1,0,0.1c0,0,0,0.1,0,0.1V27h-7.6v-2.2c0-0.1,0-0.1,0-0.2c0-0.1,0-0.1,0-0.2c0-0.1,0-0.1-0.1-0.2c0-0.1-0.1-0.1-0.1-0.2
		c0-0.1-0.1-0.1-0.1-0.2c0-0.1-0.1-0.1-0.1-0.2c0-0.1-0.1-0.1-0.1-0.2c-0.1-0.1-0.1-0.1-0.2-0.2c-0.1-0.1-0.1-0.1-0.2-0.1
		c-0.1,0-0.1-0.1-0.2-0.1c-0.1,0-0.1-0.1-0.2-0.1c-0.1,0-0.1-0.1-0.2-0.1c-0.1,0-0.2-0.1-0.2-0.1c-0.1,0-0.2,0-0.2-0.1
		c-0.1,0-0.2,0-0.2,0c-0.1,0-0.2,0-0.2,0c-0.1,0-0.2,0-0.2,0c-0.1,0-0.2,0-0.2,0c-0.1,0-0.2,0-0.2,0.1c-0.1,0-0.2,0-0.2,0.1
		c-0.1,0-0.2,0.1-0.2,0.1c-0.1,0-0.1,0.1-0.2,0.1c-0.1,0-0.1,0.1-0.2,0.1c-0.1,0-0.1,0.1-0.2,0.1c-0.1,0.1-0.1,0.1-0.2,0.2
		c-0.1,0.1-0.1,0.1-0.1,0.2c0,0.1-0.1,0.1-0.1,0.2c0,0.1-0.1,0.1-0.1,0.2c0,0.1-0.1,0.1-0.1,0.2c0,0.1,0,0.1-0.1,0.2
		c0,0.1,0,0.1,0,0.2c0,0.1,0,0.1,0,0.2V27H9.8V16.8h30.3V27h-1.7v-6.6c0,0,0-0.1,0-0.1c0,0,0-0.1,0-0.1c0,0,0-0.1-0.1-0.1
		c0,0-0.1-0.1-0.1-0.1c0,0-0.1-0.1-0.1-0.1c0,0-0.1,0-0.1-0.1c-0.1,0-0.1,0-0.2,0S37.7,19.7,37.6,19.7z M36.8,21.2v11.7H26.7V21.2
		H36.8z M25,30h-7.6v-1.5H25V30z M15.7,24.8v8.8c0,0,0,0.1,0,0.1c0,0,0,0.1,0,0.1c0,0,0,0.1-0.1,0.1c0,0-0.1,0.1-0.1,0.1
		c0,0-0.1,0.1-0.1,0.1c0,0-0.1,0-0.1,0.1c-0.1,0-0.1,0-0.2,0c-0.1,0-0.1,0-0.2,0c-0.1,0-0.1,0-0.2,0s-0.1,0-0.2,0
		c-0.1,0-0.1,0-0.1-0.1c0,0-0.1-0.1-0.1-0.1s-0.1-0.1-0.1-0.1c0,0-0.1-0.1-0.1-0.1s0-0.1,0-0.1c0,0,0-0.1,0-0.1v-8.8
		c0,0,0-0.1,0-0.1c0,0,0-0.1,0-0.1s0-0.1,0.1-0.1c0,0,0.1-0.1,0.1-0.1c0,0,0.1-0.1,0.1-0.1c0,0,0.1,0,0.1-0.1c0.1,0,0.1,0,0.2,0
		c0.1,0,0.1,0,0.2,0c0.1,0,0.1,0,0.2,0c0.1,0,0.1,0,0.2,0c0.1,0,0.1,0,0.1,0.1c0,0,0.1,0.1,0.1,0.1c0,0,0.1,0.1,0.1,0.1
		c0,0,0.1,0.1,0.1,0.1c0,0,0,0.1,0,0.1C15.7,24.8,15.7,24.8,15.7,24.8z M19.1,12.4h-0.8v-0.7c0,0,0-0.1,0-0.1c0,0,0-0.1,0-0.1
		c0,0,0-0.1,0.1-0.1c0,0,0.1-0.1,0.1-0.1c0,0,0.1-0.1,0.1-0.1c0,0,0.1,0,0.1-0.1c0.1,0,0.1,0,0.2,0c0.1,0,0.1,0,0.2,0h6.7
		c0.1,0,0.1,0,0.2,0c0.1,0,0.1,0,0.2,0c0.1,0,0.1,0,0.1-0.1c0,0,0.1-0.1,0.1-0.1c0,0,0.1-0.1,0.1-0.1c0,0,0.1-0.1,0.1-0.1
		c0,0,0-0.1,0-0.1c0,0,0-0.1,0-0.1l8.4,0v5.1H20v-2.2c0,0,0-0.1,0-0.1c0,0,0-0.1,0-0.1s0-0.1-0.1-0.1c0,0-0.1-0.1-0.1-0.1
		s-0.1-0.1-0.1-0.1c0,0-0.1,0-0.1-0.1c-0.1,0-0.1,0-0.2,0C19.2,12.4,19.2,12.4,19.1,12.4z M36.8,15.3v-1.5h1.7v1.5H36.8z M35.9,7.3
		c0.1,0,0.2,0,0.2,0c0.1,0,0.2,0,0.2,0c0.1,0,0.2,0,0.2,0.1c0.1,0,0.2,0,0.2,0.1c0.1,0,0.2,0.1,0.2,0.1c0.1,0,0.1,0.1,0.2,0.1
		c0.1,0,0.1,0.1,0.2,0.1c0.1,0,0.1,0.1,0.2,0.1C37.8,8,37.8,8,37.9,8.1C38,8.1,38,8.2,38,8.2c0,0.1,0.1,0.1,0.1,0.2s0.1,0.1,0.1,0.2
		s0.1,0.1,0.1,0.2c0,0.1,0,0.1,0.1,0.2c0,0.1,0,0.1,0,0.2c0,0.1,0,0.1,0,0.2v2.9h-1.7v-2.2c0,0,0-0.1,0-0.1c0,0,0-0.1,0-0.1
		c0,0,0-0.1,0-0.1c0,0,0-0.1-0.1-0.1c0,0,0-0.1-0.1-0.1c0,0-0.1-0.1-0.1-0.1c0,0-0.1-0.1-0.1-0.1c0,0-0.1-0.1-0.1-0.1
		c0,0-0.1-0.1-0.1-0.1C36.1,9,36.1,9,36,9c0,0-0.1-0.1-0.1-0.1c0,0-0.1,0-0.1-0.1c-0.1,0-0.1,0-0.2,0c-0.1,0-0.1,0-0.2,0
		c-0.1,0-0.1,0-0.2,0c-0.1,0-0.1,0-0.2,0l-8.4,0V7.3H35.9z M13.2,10.9c0-0.1,0-0.1,0-0.2c0-0.1,0-0.1,0-0.2c0-0.1,0-0.1,0-0.2
		c0-0.1,0-0.1,0-0.2c0-0.1,0-0.1,0.1-0.2c0-0.1,0-0.1,0.1-0.2c0-0.1,0.1-0.1,0.1-0.2c0-0.1,0.1-0.1,0.1-0.2c0-0.1,0.1-0.1,0.1-0.2
		c0-0.1,0.1-0.1,0.1-0.2c0-0.1,0.1-0.1,0.1-0.2c0-0.1,0.1-0.1,0.1-0.2c0-0.1,0.1-0.1,0.1-0.2c0-0.1,0.1-0.1,0.2-0.2
		C14.4,8.1,14.5,8,14.5,8c0.1-0.1,0.1-0.1,0.2-0.2s0.1-0.1,0.2-0.1c0.1,0,0.1-0.1,0.2-0.1c0.1,0,0.1-0.1,0.2-0.1
		c0.1,0,0.1-0.1,0.2-0.1c0.1,0,0.1-0.1,0.2-0.1c0.1,0,0.1-0.1,0.2-0.1C16,7,16,7,16.1,7c0.1,0,0.2-0.1,0.2-0.1s0.2-0.1,0.2-0.1
		c0.1,0,0.2,0,0.2-0.1c0.1,0,0.2,0,0.2-0.1c0.1,0,0.2,0,0.2,0c0.1,0,0.2,0,0.2,0c0.1,0,0.2,0,0.2,0c0.1,0,0.2,0,0.2,0
		c0.1,0,0.2,0,0.2,0H25v2.9h-5.9c-0.1,0-0.2,0-0.2,0c-0.1,0-0.2,0-0.2,0c-0.1,0-0.2,0-0.2,0.1c-0.1,0-0.2,0-0.2,0.1S18,9.7,17.9,9.7
		c-0.1,0-0.1,0.1-0.2,0.1c-0.1,0-0.1,0.1-0.2,0.1c-0.1,0-0.1,0.1-0.2,0.1c-0.1,0.1-0.1,0.1-0.2,0.2c-0.1,0.1-0.1,0.1-0.1,0.2
		c0,0.1-0.1,0.1-0.1,0.2c0,0.1-0.1,0.1-0.1,0.2c0,0.1-0.1,0.1-0.1,0.2c0,0.1,0,0.1-0.1,0.2c0,0.1,0,0.1,0,0.2c0,0.1,0,0.1,0,0.2v0.7
		h-3.4V10.9z M11.5,13.9h6.7v1.5h-6.7V13.9z M1.4,21.2h1.7v1.5H1.4V21.2z M4.8,23.4v-2.9c0-0.1,0-0.2,0-0.3c0-0.1,0-0.2,0-0.3
		c0-0.1,0-0.2,0.1-0.3C5,19.4,5,19.3,5,19.2c0-0.1,0.1-0.2,0.1-0.3c0-0.1,0.1-0.2,0.2-0.3c0.1-0.1,0.1-0.2,0.2-0.3
		c0.1-0.1,0.1-0.2,0.2-0.3C5.8,18.1,5.9,18,6,17.9c0.1-0.1,0.2-0.1,0.3-0.2c0.1-0.1,0.2-0.1,0.3-0.2c0.1-0.1,0.2-0.1,0.3-0.2
		c0.1-0.1,0.2-0.1,0.3-0.2c0.1,0,0.2-0.1,0.3-0.1c0.1,0,0.2-0.1,0.3-0.1c0.1,0,0.2-0.1,0.3-0.1V27c-0.1,0-0.2,0-0.3-0.1
		c-0.1,0-0.2-0.1-0.3-0.1c-0.1,0-0.2-0.1-0.3-0.1c-0.1,0-0.2-0.1-0.3-0.2c-0.1-0.1-0.2-0.1-0.3-0.2c-0.1-0.1-0.2-0.1-0.3-0.2
		C6.2,26.1,6.1,26,6,25.9c-0.1-0.1-0.2-0.2-0.2-0.2c-0.1-0.1-0.1-0.2-0.2-0.3c-0.1-0.1-0.1-0.2-0.2-0.3c-0.1-0.1-0.1-0.2-0.2-0.3
		c0-0.1-0.1-0.2-0.1-0.3S5,24.4,4.9,24.3c0-0.1-0.1-0.2-0.1-0.3c0-0.1,0-0.2,0-0.3C4.8,23.6,4.8,23.5,4.8,23.4z M9.8,28.5h2.5V30
		H9.8V28.5z M5.6,35.1v-1.5c0-0.1,0-0.1,0-0.2c0-0.1,0-0.1,0-0.2c0-0.1,0-0.1,0.1-0.2c0-0.1,0.1-0.1,0.1-0.2c0-0.1,0.1-0.1,0.1-0.2
		c0-0.1,0.1-0.1,0.1-0.2c0-0.1,0.1-0.1,0.1-0.2c0.1-0.1,0.1-0.1,0.2-0.2s0.1-0.1,0.2-0.1c0.1,0,0.1-0.1,0.2-0.1s0.1-0.1,0.2-0.1
		c0.1,0,0.1-0.1,0.2-0.1c0.1,0,0.2-0.1,0.2-0.1c0.1,0,0.2,0,0.2-0.1c0.1,0,0.2,0,0.2,0c0.1,0,0.2,0,0.2,0v5.9c-0.1,0-0.2,0-0.2,0
		c-0.1,0-0.2,0-0.2,0c-0.1,0-0.2,0-0.2-0.1c-0.1,0-0.2,0-0.2-0.1S7,37.1,7,37c-0.1,0-0.1-0.1-0.2-0.1s-0.1-0.1-0.2-0.1
		c-0.1,0-0.1-0.1-0.2-0.1s-0.1-0.1-0.2-0.2c-0.1-0.1-0.1-0.1-0.1-0.2c0-0.1-0.1-0.1-0.1-0.2c0-0.1-0.1-0.1-0.1-0.2
		c0-0.1-0.1-0.1-0.1-0.2c0-0.1,0-0.1-0.1-0.2c0-0.1,0-0.1,0-0.2C5.6,35.3,5.6,35.2,5.6,35.1z M9.8,37.3v-5.9h2.5v2.2
		c0,0.1,0,0.1,0,0.2c0,0.1,0,0.1,0,0.2c0,0.1,0,0.1,0.1,0.2c0,0.1,0.1,0.1,0.1,0.2c0,0.1,0.1,0.1,0.1,0.2c0,0.1,0.1,0.1,0.1,0.2
		c0,0.1,0.1,0.1,0.1,0.2c0.1,0.1,0.1,0.1,0.2,0.2s0.1,0.1,0.2,0.1c0.1,0,0.1,0.1,0.2,0.1c0.1,0,0.1,0.1,0.2,0.1
		c0.1,0,0.1,0.1,0.2,0.1c0.1,0,0.2,0.1,0.2,0.1c0.1,0,0.2,0,0.2,0.1c0.1,0,0.2,0,0.2,0c0.1,0,0.2,0,0.2,0c0.1,0,0.2,0,0.2,0
		c0.1,0,0.2,0,0.2,0c0.1,0,0.2,0,0.2-0.1c0.1,0,0.2,0,0.2-0.1c0.1,0,0.2-0.1,0.2-0.1c0.1,0,0.1-0.1,0.2-0.1c0.1,0,0.1-0.1,0.2-0.1
		c0.1,0,0.1-0.1,0.2-0.1s0.1-0.1,0.2-0.2c0.1-0.1,0.1-0.1,0.1-0.2c0-0.1,0.1-0.1,0.1-0.2c0-0.1,0.1-0.1,0.1-0.2
		c0-0.1,0.1-0.1,0.1-0.2c0-0.1,0-0.1,0.1-0.2c0-0.1,0-0.1,0-0.2c0-0.1,0-0.1,0-0.2v-2.2H25v2.2c0,0,0,0.1,0,0.1c0,0,0,0.1,0,0.1
		c0,0,0,0.1,0.1,0.1c0,0,0.1,0.1,0.1,0.1s0.1,0.1,0.1,0.1c0,0,0.1,0,0.1,0.1c0.1,0,0.1,0,0.2,0s0.1,0,0.2,0h11.8c0.1,0,0.1,0,0.2,0
		s0.1,0,0.2,0c0.1,0,0.1,0,0.1-0.1c0,0,0.1-0.1,0.1-0.1c0,0,0.1-0.1,0.1-0.1c0,0,0.1-0.1,0.1-0.1c0,0,0-0.1,0-0.1c0,0,0-0.1,0-0.1
		v-2.2h1.7v5.9H9.8z M44.4,33.6v1.5c0,0.1,0,0.1,0,0.2c0,0.1,0,0.1,0,0.2c0,0.1,0,0.1-0.1,0.2c0,0.1-0.1,0.1-0.1,0.2
		c0,0.1-0.1,0.1-0.1,0.2c0,0.1-0.1,0.1-0.1,0.2c0,0.1-0.1,0.1-0.1,0.2c-0.1,0.1-0.1,0.1-0.2,0.2s-0.1,0.1-0.2,0.1s-0.1,0.1-0.2,0.1
		C43.2,37,43.1,37,43,37c-0.1,0-0.1,0.1-0.2,0.1c-0.1,0-0.2,0.1-0.2,0.1s-0.2,0-0.2,0.1c-0.1,0-0.2,0-0.2,0c-0.1,0-0.2,0-0.2,0v-5.9
		c0.1,0,0.2,0,0.2,0c0.1,0,0.2,0,0.2,0c0.1,0,0.2,0,0.2,0.1c0.1,0,0.2,0,0.2,0.1c0.1,0,0.2,0.1,0.2,0.1c0.1,0,0.1,0.1,0.2,0.1
		c0.1,0,0.1,0.1,0.2,0.1c0.1,0,0.1,0.1,0.2,0.1s0.1,0.1,0.2,0.2c0.1,0.1,0.1,0.1,0.1,0.2c0,0.1,0.1,0.1,0.1,0.2
		c0,0.1,0.1,0.1,0.1,0.2c0,0.1,0.1,0.1,0.1,0.2c0,0.1,0,0.1,0.1,0.2c0,0.1,0,0.1,0,0.2C44.4,33.5,44.4,33.6,44.4,33.6z M38.5,30
		v-1.5h1.7V30H38.5z M41.8,27V16.9c0.1,0,0.2,0,0.3,0.1c0.1,0,0.2,0.1,0.3,0.1c0.1,0,0.2,0.1,0.3,0.1c0.1,0,0.2,0.1,0.3,0.2
		c0.1,0.1,0.2,0.1,0.3,0.2c0.1,0.1,0.2,0.1,0.3,0.2c0.1,0.1,0.2,0.1,0.3,0.2c0.1,0.1,0.2,0.2,0.2,0.2c0.1,0.1,0.1,0.2,0.2,0.3
		c0.1,0.1,0.1,0.2,0.2,0.3c0.1,0.1,0.1,0.2,0.2,0.3c0,0.1,0.1,0.2,0.1,0.3c0,0.1,0.1,0.2,0.1,0.3c0,0.1,0.1,0.2,0.1,0.3
		c0,0.1,0,0.2,0,0.3c0,0.1,0,0.2,0,0.3v2.9c0,0.1,0,0.2,0,0.3c0,0.1,0,0.2,0,0.3c0,0.1,0,0.2-0.1,0.3c0,0.1-0.1,0.2-0.1,0.3
		c0,0.1-0.1,0.2-0.1,0.3c0,0.1-0.1,0.2-0.2,0.3c-0.1,0.1-0.1,0.2-0.2,0.3c-0.1,0.1-0.1,0.2-0.2,0.3c-0.1,0.1-0.2,0.2-0.2,0.2
		c-0.1,0.1-0.2,0.1-0.3,0.2c-0.1,0.1-0.2,0.1-0.3,0.2c-0.1,0.1-0.2,0.1-0.3,0.2c-0.1,0.1-0.2,0.1-0.3,0.2c-0.1,0-0.2,0.1-0.3,0.1
		c-0.1,0-0.2,0.1-0.3,0.1C42.1,26.9,42,27,41.8,27z M48.6,22.6h-1.7v-1.5h1.7V22.6z"/>
</g>
<rect x="28.2" y="23.1" class="st1" width="7.1" height="7.9"/>
<rect x="17.2" y="17.7" class="st0" width="21.4" height="0.8"/>
</svg>
